<?xml version="1.0" encoding="UTF-8" standalone="no"?>
<!-- Created with Inkscape (http://www.inkscape.org/) -->

<svg
   xmlns:dc="http://purl.org/dc/elements/1.1/"
   xmlns:cc="http://creativecommons.org/ns#"
   xmlns:rdf="http://www.w3.org/1999/02/22-rdf-syntax-ns#"
   xmlns:svg="http://www.w3.org/2000/svg"
   xmlns="http://www.w3.org/2000/svg"
   xmlns:sodipodi="http://sodipodi.sourceforge.net/DTD/sodipodi-0.dtd"
   xmlns:inkscape="http://www.inkscape.org/namespaces/inkscape"
   version="1.1"
   id="svg10"
   width="544.51923"
   height="521.81012"
   viewBox="0 0 544.51923 521.81012"
   sodipodi:docname="star_rated.svg"
   inkscape:version="0.92.3 (2405546, 2018-03-11)">
  <metadata
     id="metadata16">
    <rdf:RDF>
      <cc:Work
         rdf:about="">
        <dc:format>image/svg+xml</dc:format>
        <dc:type
           rdf:resource="http://purl.org/dc/dcmitype/StillImage" />
        <dc:title></dc:title>
      </cc:Work>
    </rdf:RDF>
  </metadata>
  <defs
     id="defs14" />
  <sodipodi:namedview
     pagecolor="#ffffff"
     bordercolor="#666666"
     borderopacity="1"
     objecttolerance="10"
     gridtolerance="10"
     guidetolerance="10"
     inkscape:pageopacity="0"
     inkscape:pageshadow="2"
     inkscape:window-width="1920"
     inkscape:window-height="1017"
     id="namedview12"
     showgrid="false"
     showguides="true"
     inkscape:guide-bbox="true"
     inkscape:zoom="1.5527345"
     inkscape:cx="267.75662"
     inkscape:cy="286.81737"
     inkscape:window-x="-8"
     inkscape:window-y="-8"
     inkscape:window-maximized="1"
     inkscape:current-layer="svg10">
    <sodipodi:guide
       position="253.58808,345.42366"
       orientation="0,1"
       id="guide22"
       inkscape:locked="false" />
  </sodipodi:namedview>
  <path
     style="fill:#ffd42a;stroke-width:1.0666666"
     d="m 119.73148,520.63514 c -15.91052,-3.6221 -26.882599,-14.9417 -29.945139,-30.8936 -1.28284,-6.682 -2.25329,0.1418 11.482759,-80.74234 8.50936,-50.107 11.13324,-67.74352 10.55311,-70.93335 C 110.9818,333.4448 101.1246,323.26488 35.872421,259.62949 4.4572811,228.99275 2.0810711,225.91905 0.41964108,213.77037 -1.2347789,201.67305 2.0133211,190.99521 9.975081,182.35773 c 5.1961,-5.63711 11.21491,-9.43389 17.63685,-11.12567 2.42759,-0.63952 34.10758,-5.47972 70.400003,-10.75599 36.292416,-5.27627 67.341866,-9.87822 68.998776,-10.22656 1.6569,-0.34834 4.70474,-2.11911 6.77297,-3.93502 3.73595,-3.28022 5.87804,-7.46126 56.47725,-110.2351 C 238.70419,18.92997 241.16188,14.87329 245.654,10.67145 253.9206,2.93901 261.24945,0 272.2648,0 c 7.53586,0 10.07879,0.47068 15.06134,2.78775 6.81336,3.16846 14.0104,9.26019 17.43827,14.76012 1.2818,2.0566 15.66482,30.85927 31.9623,64.00594 18.1503,36.91508 30.90121,61.60211 32.90801,63.71323 1.80196,1.89562 4.75088,3.90928 6.55318,4.47482 1.80229,0.56553 33.75689,5.4345 71.01022,10.81992 42.47238,6.13992 69.82051,10.56574 73.32977,11.86717 3.23071,1.19812 8.05795,4.32515 11.41948,7.3974 9.74828,8.90939 13.97361,20.70163 12.1626,33.94402 -1.65757,12.12034 -4.0587,15.22562 -35.46123,45.86036 -65.56307,63.96006 -75.1006,73.81279 -75.94648,78.4564 -0.58663,3.22046 2.00122,20.61367 10.55383,70.93337 6.23207,36.66664 11.60466,68.58664 11.93908,70.93334 1.41887,9.9562 -3.42048,22.7842 -11.50385,30.4941 -9.48755,9.0492 -21.94755,13.0341 -33.50069,10.7139 -6.89515,-1.3848 -4.95292,-0.4192 -76.94604,-38.2529 -50.64212,-26.6134 -56.2967,-29.3346 -60.95704,-29.3346 -4.67209,0 -10.61365,2.8822 -65.67078,31.8564 -33.29365,17.521 -62.74298,32.6441 -65.44294,33.6069 -7.1524,2.5504 -14.76525,3.1176 -21.44235,1.5975 z"
     id="path20"
     inkscape:connector-curvature="0" />
</svg>
